<?xml version="1.0" encoding="UTF-8"?>
<svg height="128px" viewBox="0 0 128 128" width="128px" xmlns="http://www.w3.org/2000/svg" xmlns:xlink="http://www.w3.org/1999/xlink">
    <defs>
        <filter id="a" height="100%" width="100%" x="0%" y="0%">
            <feColorMatrix color-interpolation-filters="sRGB" values="0 0 0 0 1 0 0 0 0 1 0 0 0 0 1 0 0 0 1 0"/>
        </filter>
        <linearGradient id="b" gradientUnits="userSpaceOnUse" x1="8" x2="120" y1="116" y2="116">
            <stop offset="0" stop-color="#ffffff" stop-opacity="0.101961"/>
            <stop offset="0.045" stop-color="#ffffff" stop-opacity="0.6"/>
            <stop offset="0.214" stop-color="#ffffff" stop-opacity="0"/>
            <stop offset="0.786" stop-color="#ffffff" stop-opacity="0"/>
            <stop offset="0.955" stop-color="#ffffff" stop-opacity="0.6"/>
            <stop offset="1" stop-color="#ffffff" stop-opacity="0.101961"/>
        </linearGradient>
        <linearGradient id="c" gradientUnits="userSpaceOnUse" x1="16" x2="112" y1="108" y2="108">
            <stop offset="0" stop-color="#180746"/>
            <stop offset="0.042" stop-color="#5538ca"/>
            <stop offset="0.173" stop-color="#180746"/>
            <stop offset="0.819" stop-color="#180746"/>
            <stop offset="0.953" stop-color="#5538ca"/>
            <stop offset="1" stop-color="#180746"/>
        </linearGradient>
        <linearGradient id="d" gradientUnits="userSpaceOnUse" x1="16" x2="112" y1="97" y2="97">
            <stop offset="0" stop-color="#604cb2"/>
            <stop offset="0.329" stop-color="#3c187c"/>
            <stop offset="0.756" stop-color="#604cb2"/>
            <stop offset="1" stop-color="#3c187c"/>
        </linearGradient>
        <mask id="e">
            <g filter="url(#a)">
                <rect fill-opacity="0.8" height="153.6" width="153.6" x="-12.8" y="-12.8"/>
            </g>
        </mask>
        <mask id="f">
            <g filter="url(#a)">
                <rect fill-opacity="0.8" height="153.6" width="153.6" x="-12.8" y="-12.8"/>
            </g>
        </mask>
        <mask id="g">
            <g filter="url(#a)">
                <rect fill-opacity="0.8" height="153.6" width="153.6" x="-12.8" y="-12.8"/>
            </g>
        </mask>
        <linearGradient id="h" gradientUnits="userSpaceOnUse" x1="32" x2="96" y1="62" y2="62">
            <stop offset="0" stop-color="#240d82"/>
            <stop offset="0.25" stop-color="#5536d2"/>
            <stop offset="0.75" stop-color="#5536d2"/>
            <stop offset="1" stop-color="#240d82"/>
        </linearGradient>
        <radialGradient id="i" cx="0" cy="0" gradientTransform="matrix(-16.000031 -24.50004 26.841049 -17.528851 80 51.5)" gradientUnits="userSpaceOnUse" r="1">
            <stop offset="0" stop-color="#a89ad1"/>
            <stop offset="1" stop-color="#a89ad1" stop-opacity="0"/>
        </radialGradient>
        <mask id="j">
            <g filter="url(#a)">
                <rect fill-opacity="0.8" height="221.184" width="221.184" x="-46.592" y="-46.592"/>
            </g>
        </mask>
        <linearGradient id="k" gradientUnits="userSpaceOnUse">
            <stop offset="0" stop-color="#ffffff" stop-opacity="0.101961"/>
            <stop offset="0.5" stop-color="#ffffff" stop-opacity="0.698039"/>
            <stop offset="1" stop-color="#ffffff" stop-opacity="0.101961"/>
        </linearGradient>
        <linearGradient id="l" x1="2.5" x2="20.5" xlink:href="#k" y1="63.5" y2="93"/>
        <clipPath id="m">
            <rect height="128" width="128"/>
        </clipPath>
        <g id="n" clip-path="url(#m)">
            <path d="m 120 74 v -28 c 0 -3.367188 -1.878906 -6.457031 -4.871094 -8 l -0.492187 -0.234375 l -50.636719 -24.265625 l -50.636719 24.265625 l -0.492187 0.234375 c -2.992188 1.542969 -4.871094 4.632812 -4.871094 8 v 28 c 0 4.96875 4.03125 9 9 9 h 94 c 4.96875 0 9 -4.03125 9 -9 z m 0 0" fill="url(#l)"/>
        </g>
        <mask id="o">
            <g filter="url(#a)">
                <rect fill-opacity="0.8" height="221.184" width="221.184" x="-46.592" y="-46.592"/>
            </g>
        </mask>
        <linearGradient id="p" x1="125.5" x2="107.5" xlink:href="#k" y1="63.5" y2="93"/>
        <clipPath id="q">
            <rect height="128" width="128"/>
        </clipPath>
        <g id="r" clip-path="url(#q)">
            <path d="m 8 74 v -28 c 0 -3.367188 1.878906 -6.457031 4.871094 -8 l 0.492187 -0.234375 l 50.636719 -24.265625 l 50.636719 24.265625 l 0.492187 0.234375 c 2.992188 1.542969 4.871094 4.632812 4.871094 8 v 28 c 0 4.96875 -4.03125 9 -9 9 h -94 c -4.96875 0 -9 -4.03125 -9 -9 z m 0 0" fill="url(#p)"/>
        </g>
        <mask id="s">
            <g filter="url(#a)">
                <rect fill-opacity="0.8" height="221.184" width="221.184" x="-46.592" y="-46.592"/>
            </g>
        </mask>
        <linearGradient id="t" gradientUnits="userSpaceOnUse" x1="39.5" x2="39.5" y1="64.741997" y2="87.711998">
            <stop offset="0" stop-color="#ffffff" stop-opacity="0.101961"/>
            <stop offset="1" stop-color="#ffffff" stop-opacity="0.709804"/>
        </linearGradient>
        <clipPath id="u">
            <rect height="128" width="128"/>
        </clipPath>
        <g id="v" clip-path="url(#u)">
            <path d="m 120 74 v -28 c 0 -3.367188 -1.878906 -6.457031 -4.871094 -8 l -0.492187 -0.234375 l -50.636719 -24.265625 l -50.636719 24.265625 l -0.492187 0.234375 c -2.992188 1.542969 -4.871094 4.632812 -4.871094 8 v 28 c 0 4.96875 4.03125 9 9 9 h 94 c 4.96875 0 9 -4.03125 9 -9 z m 0 0" fill="url(#t)"/>
        </g>
        <clipPath id="w">
            <rect height="128" width="128"/>
        </clipPath>
        <clipPath id="x">
            <rect height="128" width="128"/>
        </clipPath>
        <mask id="y">
            <g filter="url(#a)">
                <g clip-path="url(#x)" filter="url(#a)">
                    <g clip-path="url(#w)">
                        <path d="m 120 107 v -61 c 0 -3.367188 -1.878906 -6.457031 -4.871094 -8 l -0.492187 -0.234375 l -50.636719 -24.265625 l -50.636719 24.265625 l -0.492187 0.234375 c -2.992188 1.542969 -4.871094 4.632812 -4.871094 8 v 61 c 0 4.96875 4.03125 9 9 9 h 94 c 4.96875 0 9 -4.03125 9 -9 z m 0 0" fill="#7c5fb9"/>
                        <path d="m 120 46 v 61 c 0 4.96875 -4.03125 9 -9 9 h -94 c -4.96875 0 -9 -4.03125 -9 -9 v -61 c 0 -3.367188 1.878906 -6.457031 4.871094 -8 l 0.492187 -0.234375 l 50.636719 -24.265625 l 50.636719 24.265625 l 0.492187 0.234375 c 2.992188 1.542969 4.871094 4.632812 4.871094 8 z m -11.675781 -2.824219 l -44.324219 -21.175781 l -44.324219 21.175781 c -2.171875 0.597657 -3.675781 2.574219 -3.675781 4.824219 v 55 c 0 2.761719 2.238281 5 5 5 h 86 c 2.761719 0 5 -2.238281 5 -5 v -55 c 0 -2.25 -1.503906 -4.226562 -3.675781 -4.824219 z m 0 0" fill="url(#b)" fill-rule="evenodd"/>
                        <path d="m 16 71 c 0 -2.761719 2.238281 -5 5 -5 h 86 c 2.761719 0 5 2.238281 5 5 v 32 c 0 2.761719 -2.238281 5 -5 5 h -86 c -2.761719 0 -5 -2.238281 -5 -5 z m 0 0" fill="url(#c)"/>
                        <path d="m 16 57.519531 c 0 -1.585937 0.746094 -3.078125 2.105469 -3.886719 c 4.1875 -2.488281 13.800781 -7.070312 21.394531 -2.132812 c 8.972656 5.832031 31.28125 21.898438 41.5 7.5 c 8.578125 -12.085938 22.628906 -7.753906 28.398438 -5.261719 c 1.644531 0.710938 2.601562 2.363281 2.601562 4.15625 v 31.335938 c 0 3.203125 -2.972656 5.601562 -6.125 5.023437 c -5.664062 -1.042968 -14.121094 -2.351562 -20.375 -2.226562 c -17.765625 0.355468 -31 3.992187 -49 3.457031 c -6.820312 -0.203125 -13.699219 -2.347656 -17.5 -3.746094 c -1.847656 -0.675781 -3 -2.457031 -3 -4.429687 z m 0 0" fill="url(#d)"/>
                        <g mask="url(#j)">
                            <use xlink:href="#n"/>
                        </g>
                        <g mask="url(#o)">
                            <use xlink:href="#r"/>
                        </g>
                        <g mask="url(#s)">
                            <use xlink:href="#v"/>
                        </g>
                        <path d="m 64 66 c 14.910156 0 27 -5.746094 27 -15.191406 v -9.441406 h -54 v 9.03125 c 0 8.617187 12.089844 15.601562 27 15.601562 z m 0 0" fill="#2f1e75"/>
                        <path d="m 91 42.394531 c 0 8.503907 -12.089844 15.394531 -27 15.394531 s -27 -6.890624 -27 -15.394531 c 0 -8.503906 12.089844 -15.394531 27 -15.394531 s 27 6.890625 27 15.394531 z m 0 0" fill="#331b5e"/>
                        <path d="m 64 62 c 17.671875 0 32 -8.398438 32 -22.199219 v -13.800781 h -64 v 13.199219 c 0 12.59375 14.328125 22.800781 32 22.800781 z m 0 0" fill="url(#h)"/>
                        <path d="m 96 26.5 c 0 12.425781 -14.328125 22.5 -32 22.5 s -32 -10.074219 -32 -22.5 s 14.328125 -22.5 32 -22.5 s 32 10.074219 32 22.5 z m 0 0" fill="#8269e8"/>
                        <path d="m 84.328125 39.136719 c 5.050781 -3.550781 7.671875 -8.078125 7.671875 -12.636719 s -2.621094 -9.085938 -7.671875 -12.636719 c -5.042969 -3.542969 -12.214844 -5.863281 -20.328125 -5.863281 s -15.285156 2.320312 -20.328125 5.863281 c -5.050781 3.550781 -7.671875 8.078125 -7.671875 12.636719 s 2.621094 9.085938 7.671875 12.636719 c 5.042969 3.546875 12.214844 5.863281 20.328125 5.863281 s 15.285156 -2.320312 20.328125 -5.863281 z m -20.328125 9.863281 c 17.671875 0 32 -10.074219 32 -22.5 s -14.328125 -22.5 -32 -22.5 s -32 10.074219 -32 22.5 s 14.328125 22.5 32 22.5 z m 0 0" fill="url(#i)" fill-rule="evenodd"/>
                    </g>
                </g>
            </g>
        </mask>
        <mask id="z">
            <g filter="url(#a)">
                <rect fill-opacity="0.8" height="184.32" width="184.32" x="-28.16" y="-28.16"/>
            </g>
        </mask>
        <linearGradient id="A" gradientTransform="matrix(0 0.37 -0.98462 0 295.38501 -30.360001)" gradientUnits="userSpaceOnUse" x1="300" x2="428" y1="235" y2="235">
            <stop offset="0" stop-color="#f9f06b"/>
            <stop offset="1" stop-color="#f5c211"/>
        </linearGradient>
        <clipPath id="B">
            <rect height="128" width="128"/>
        </clipPath>
        <clipPath id="C">
            <rect height="128" width="128"/>
        </clipPath>
    </defs>
    <path d="m 120 107 v -61 c 0 -3.367188 -1.878906 -6.457031 -4.871094 -8 l -0.492187 -0.234375 l -50.636719 -24.265625 l -50.636719 24.265625 l -0.492187 0.234375 c -2.992188 1.542969 -4.871094 4.632812 -4.871094 8 v 61 c 0 4.96875 4.03125 9 9 9 h 94 c 4.96875 0 9 -4.03125 9 -9 z m 0 0" fill="#7c5fb9"/>
    <path d="m 120 46 v 61 c 0 4.96875 -4.03125 9 -9 9 h -94 c -4.96875 0 -9 -4.03125 -9 -9 v -61 c 0 -3.367188 1.878906 -6.457031 4.871094 -8 l 0.492187 -0.234375 l 50.636719 -24.265625 l 50.636719 24.265625 l 0.492187 0.234375 c 2.992188 1.542969 4.871094 4.632812 4.871094 8 z m -11.675781 -2.824219 l -44.324219 -21.175781 l -44.324219 21.175781 c -2.171875 0.597657 -3.675781 2.574219 -3.675781 4.824219 v 55 c 0 2.761719 2.238281 5 5 5 h 86 c 2.761719 0 5 -2.238281 5 -5 v -55 c 0 -2.25 -1.503906 -4.226562 -3.675781 -4.824219 z m 0 0" fill="url(#b)" fill-rule="evenodd"/>
    <path d="m 16 71 c 0 -2.761719 2.238281 -5 5 -5 h 86 c 2.761719 0 5 2.238281 5 5 v 32 c 0 2.761719 -2.238281 5 -5 5 h -86 c -2.761719 0 -5 -2.238281 -5 -5 z m 0 0" fill="url(#c)"/>
    <path d="m 16 57.519531 c 0 -1.585937 0.746094 -3.078125 2.105469 -3.886719 c 4.1875 -2.488281 13.800781 -7.070312 21.394531 -2.132812 c 8.972656 5.832031 31.28125 21.898438 41.5 7.5 c 8.578125 -12.085938 22.628906 -7.753906 28.398438 -5.261719 c 1.644531 0.710938 2.601562 2.363281 2.601562 4.15625 v 31.335938 c 0 3.203125 -2.972656 5.601562 -6.125 5.023437 c -5.664062 -1.042968 -14.121094 -2.351562 -20.375 -2.226562 c -17.765625 0.355468 -31 3.992187 -49 3.457031 c -6.820312 -0.203125 -13.699219 -2.347656 -17.5 -3.746094 c -1.847656 -0.675781 -3 -2.457031 -3 -4.429687 z m 0 0" fill="url(#d)"/>
    <g mask="url(#e)">
        <use xlink:href="#n"/>
    </g>
    <g mask="url(#f)">
        <use xlink:href="#r"/>
    </g>
    <g mask="url(#g)">
        <use xlink:href="#v"/>
    </g>
    <path d="m 64 66 c 14.910156 0 27 -5.746094 27 -15.191406 v -9.441406 h -54 v 9.03125 c 0 8.617187 12.089844 15.601562 27 15.601562 z m 0 0" fill="#2f1e75"/>
    <path d="m 91 42.394531 c 0 8.503907 -12.089844 15.394531 -27 15.394531 s -27 -6.890624 -27 -15.394531 c 0 -8.503906 12.089844 -15.394531 27 -15.394531 s 27 6.890625 27 15.394531 z m 0 0" fill="#331b5e"/>
    <path d="m 64 62 c 17.671875 0 32 -8.398438 32 -22.199219 v -13.800781 h -64 v 13.199219 c 0 12.59375 14.328125 22.800781 32 22.800781 z m 0 0" fill="url(#h)"/>
    <path d="m 96 26.5 c 0 12.425781 -14.328125 22.5 -32 22.5 s -32 -10.074219 -32 -22.5 s 14.328125 -22.5 32 -22.5 s 32 10.074219 32 22.5 z m 0 0" fill="#8269e8"/>
    <path d="m 84.328125 39.136719 c 5.050781 -3.550781 7.671875 -8.078125 7.671875 -12.636719 s -2.621094 -9.085938 -7.671875 -12.636719 c -5.042969 -3.542969 -12.214844 -5.863281 -20.328125 -5.863281 s -15.285156 2.320312 -20.328125 5.863281 c -5.050781 3.550781 -7.671875 8.078125 -7.671875 12.636719 s 2.621094 9.085938 7.671875 12.636719 c 5.042969 3.546875 12.214844 5.863281 20.328125 5.863281 s 15.285156 -2.320312 20.328125 -5.863281 z m -20.328125 9.863281 c 17.671875 0 32 -10.074219 32 -22.5 s -14.328125 -22.5 -32 -22.5 s -32 10.074219 -32 22.5 s 14.328125 22.5 32 22.5 z m 0 0" fill="url(#i)" fill-rule="evenodd"/>
    <g mask="url(#y)">
        <g clip-path="url(#C)">
            <g mask="url(#z)">
                <g clip-path="url(#B)">
                    <path d="m 128 80.640625 v 47.359375 h -128 v -47.359375 z m 0 0" fill="url(#A)"/>
                    <path d="m 13.308594 80.640625 l 47.355468 47.359375 h 21.214844 l -47.359375 -47.359375 z m 42.421875 0 l 47.363281 47.359375 h 21.214844 l -47.363282 -47.359375 z m 42.429687 0 l 29.839844 29.839844 v -21.210938 l -8.628906 -8.628906 z m -98.160156 7.90625 v 21.214844 l 18.238281 18.238281 h 21.214844 z m 0 0"/>
                </g>
            </g>
        </g>
    </g>
</svg>
