<svg width="128" height="128" fill="none" xmlns="http://www.w3.org/2000/svg"><path d="M17 116h94a9 9 0 0 0 9-9V43.538a5 5 0 0 0-3.336-4.715L86 24H42L11.336 38.823A5 5 0 0 0 8 43.538V107a9 9 0 0 0 9 9Z" fill="#9A9996"/><path fill-rule="evenodd" clip-rule="evenodd" d="M115.333 42.595a4.027 4.027 0 0 1-.41-.171L85.083 28H42.917l-29.84 14.424a3.99 3.99 0 0 1-.409.17 1 1 0 0 0-.667.944V107a5 5 0 0 0 5 5h94a5 5 0 0 0 5-5V43.538a1 1 0 0 0-.667-.943ZM42 24h44l30.664 14.823A5 5 0 0 1 120 43.538V107a9 9 0 0 1-9 9H17a9 9 0 0 1-9-9V43.538a5 5 0 0 1 3.336-4.715L42 24Z" fill="url(#a)"/><path d="M16 71a5 5 0 0 1 5-5h86a5 5 0 0 1 5 5v32a5 5 0 0 1-5 5H21a5 5 0 0 1-5-5V71Z" fill="url(#b)"/><path d="M16 57.519c0-1.585.745-3.076 2.107-3.886 4.186-2.49 13.799-7.07 21.393-2.133C48.472 57.332 70.781 73.4 81 59c8.578-12.087 22.628-7.755 28.4-5.262 1.643.71 2.6 2.365 2.6 4.155V89.23c0 3.205-2.973 5.603-6.125 5.023-5.663-1.043-14.123-2.35-20.375-2.226-17.766.354-31 3.992-49 3.456-6.819-.203-13.698-2.348-17.499-3.743C17.153 91.062 16 89.28 16 87.31V57.52Z" fill="url(#c)"/><path fill-rule="evenodd" clip-rule="evenodd" d="M110 89.23V57.893c0-1.097-.575-1.965-1.393-2.319-2.771-1.197-7.419-2.78-12.31-2.673-4.8.105-9.81 1.823-13.666 7.257-2.901 4.088-6.734 6.062-10.933 6.552-4.11.478-8.477-.471-12.609-1.997-7.253-2.68-14.36-7.37-18.952-10.401-.624-.412-1.202-.794-1.727-1.135-3.193-2.075-6.89-2.214-10.462-1.44-3.578.774-6.817 2.424-8.819 3.615-.68.404-1.129 1.195-1.129 2.167V87.31c0 1.196.69 2.184 1.69 2.552 3.733 1.37 10.373 3.428 16.87 3.621 8.849.264 16.539-.497 24.301-1.382.834-.095 1.669-.192 2.506-.289 6.943-.802 14.064-1.625 22.093-1.785 6.474-.13 15.111 1.215 20.777 2.258 1.965.361 3.763-1.143 3.763-3.056ZM18.107 53.633c-1.362.81-2.107 2.301-2.107 3.886V87.31c0 1.968 1.153 3.75 3.001 4.43 3.801 1.394 10.68 3.54 17.499 3.742 9.967.297 18.473-.686 27.096-1.683 6.95-.803 13.976-1.615 21.904-1.773 6.252-.124 14.712 1.183 20.375 2.226 3.152.58 6.125-1.818 6.125-5.023V57.893c0-1.79-.957-3.445-2.6-4.155C103.628 51.245 89.578 46.913 81 59c-9.605 13.534-29.89.153-39.743-6.346-.63-.416-1.218-.804-1.757-1.154-7.594-4.936-17.207-.356-21.393 2.133Z" fill="url(#d)"/><path d="M8 43.173a5 5 0 0 1 2.871-4.524L42 24h44l31.129 14.649A5 5 0 0 1 120 43.173V74a9 9 0 0 1-9 9H17a9 9 0 0 1-9-9V43.173Z" fill="#DEDDDA" fill-opacity=".4"/><path fill-rule="evenodd" clip-rule="evenodd" d="m14.228 78.162 28.93-20.531-2.316-3.262-28.78 20.424A5.036 5.036 0 0 1 12 74V43.173a1 1 0 0 1 .574-.905L42.894 28h42.212l30.32 14.268a1 1 0 0 1 .574.905V74c0 .27-.021.535-.063.793L87.157 54.37l-2.314 3.262 28.929 20.53A4.977 4.977 0 0 1 111 79H17a4.977 4.977 0 0 1-2.772-.838ZM86 24l31.129 14.649A5 5 0 0 1 120 43.173V74a9 9 0 0 1-9 9H17a9 9 0 0 1-9-9V43.173a5 5 0 0 1 2.871-4.524L42 24h44Z" fill="url(#e)"/><path d="M64 66c14.912 0 27-5.747 27-15.19v-9.442H37V50.4C37 59.016 49.088 66 64 66Z" fill="#3D3846"/><path d="M91 42.395c0 8.502-12.088 15.394-27 15.394s-27-6.892-27-15.394C37 33.892 49.088 27 64 27s27 6.892 27 15.395Z" fill="#3D3846"/><path d="M64 62c17.673 0 32-8.4 32-22.2V26H32v13.2C32 51.792 46.327 62 64 62Z" fill="url(#f)"/><path d="M96 26.5C96 38.926 81.673 49 64 49c-17.673 0-32-10.074-32-22.5S46.327 4 64 4c17.673 0 32 10.074 32 22.5Z" fill="url(#g)"/><path fill-rule="evenodd" clip-rule="evenodd" d="M84.327 39.138C89.378 35.586 92 31.058 92 26.5s-2.622-9.086-7.673-12.638C79.287 10.32 72.113 8 64 8c-8.113 0-15.287 2.319-20.327 5.862C38.622 17.414 36 21.942 36 26.5s2.622 9.086 7.673 12.638C48.713 42.682 55.887 45 64 45c8.113 0 15.287-2.319 20.327-5.862ZM64 49c17.673 0 32-10.074 32-22.5S81.673 4 64 4C46.327 4 32 14.074 32 26.5S46.327 49 64 49Z" fill="url(#h)"/><defs><linearGradient id="a" x1="8" y1="116" x2="120" y2="116" gradientUnits="userSpaceOnUse"><stop stop-color="#fff" stop-opacity=".2"/><stop offset=".5" stop-color="#fff" stop-opacity=".5"/><stop offset="1" stop-color="#fff" stop-opacity=".2"/></linearGradient><linearGradient id="b" x1="16" y1="108" x2="112" y2="108" gradientUnits="userSpaceOnUse"><stop stop-color="#241F31"/><stop offset=".042" stop-color="#77767B"/><stop offset=".328"/><stop offset=".698"/><stop offset=".953" stop-color="#77767B"/><stop offset="1" stop-color="#241F31"/></linearGradient><linearGradient id="c" x1="16" y1="97" x2="112" y2="97" gradientUnits="userSpaceOnUse"><stop stop-color="#77767B"/><stop offset=".125" stop-color="#5E5C64"/><stop offset=".307" stop-color="#3D3846"/><stop offset=".594" stop-color="#5E5C64"/><stop offset=".719" stop-color="#77767B"/><stop offset=".839" stop-color="#5E5C64"/><stop offset="1" stop-color="#3D3846"/></linearGradient><linearGradient id="d" x1="89.5" y1="101.5" x2="83.5" y2="72" gradientUnits="userSpaceOnUse"><stop stop-color="#fff" stop-opacity=".19"/><stop offset="1" stop-color="#fff" stop-opacity="0"/></linearGradient><linearGradient id="e" x1="8" y1="83" x2="120" y2="83" gradientUnits="userSpaceOnUse"><stop stop-color="#fff" stop-opacity=".2"/><stop offset=".5" stop-color="#fff" stop-opacity=".5"/><stop offset="1" stop-color="#fff" stop-opacity=".2"/></linearGradient><linearGradient id="f" x1="32" y1="62" x2="96" y2="62" gradientUnits="userSpaceOnUse"><stop stop-color="#3D3846"/><stop offset=".047" stop-color="#5E5C64"/><stop offset=".135" stop-color="#9A9996"/><stop offset=".281" stop-color="#5E5C64"/><stop offset=".646" stop-color="#5E5C64"/><stop offset=".859" stop-color="#9A9996"/><stop offset=".948" stop-color="#5E5C64"/><stop offset="1" stop-color="#3D3846"/></linearGradient><radialGradient id="g" cx="0" cy="0" r="1" gradientUnits="userSpaceOnUse" gradientTransform="matrix(0 35.5 -60.3742 0 64 26.5)"><stop stop-color="#5E5C64"/><stop offset="1" stop-color="#9A9996"/></radialGradient><radialGradient id="h" cx="0" cy="0" r="1" gradientUnits="userSpaceOnUse" gradientTransform="matrix(-16.00003 -24.50004 26.84105 -17.52885 80 51.5)"><stop stop-color="#C0BFBC"/><stop offset="1" stop-color="#C0BFBC" stop-opacity="0"/></radialGradient></defs></svg>