<svg width="128" height="128" fill="none" xmlns="http://www.w3.org/2000/svg"><path d="M120 107V46a8.998 8.998 0 0 0-4.873-8l-.489-.234L64 13.5 13.362 37.766l-.49.234A9 9 0 0 0 8 46v61a9 9 0 0 0 9 9h94a9 9 0 0 0 9-9Z" fill="#7C5FB9"/><path fill-rule="evenodd" clip-rule="evenodd" d="M120 46v61a9 9 0 0 1-9 9H17a9 9 0 0 1-9-9V46a9 9 0 0 1 4.873-8l.489-.234L64 13.5l50.638 24.266.489.234A8.998 8.998 0 0 1 120 46Zm-11.675-2.823L64 22 19.675 43.177A5.002 5.002 0 0 0 16 48v55a5 5 0 0 0 5 5h86a5 5 0 0 0 5-5V48a5.002 5.002 0 0 0-3.675-4.823Z" fill="url(#a)"/><path d="M16 71a5 5 0 0 1 5-5h86a5 5 0 0 1 5 5v32a5 5 0 0 1-5 5H21a5 5 0 0 1-5-5V71Z" fill="url(#b)"/><path d="M16 57.519c0-1.585.745-3.076 2.107-3.886 4.186-2.49 13.799-7.07 21.393-2.133C48.472 57.332 70.781 73.4 81 59c8.578-12.087 22.628-7.755 28.4-5.262 1.643.71 2.6 2.365 2.6 4.155V89.23c0 3.205-2.973 5.603-6.125 5.023-5.663-1.043-14.123-2.35-20.375-2.226-17.766.354-31 3.992-49 3.456-6.819-.203-13.698-2.348-17.499-3.743C17.153 91.062 16 89.28 16 87.31V57.52Z" fill="url(#c)"/><path opacity=".8" d="M120 74V46a8.998 8.998 0 0 0-4.873-8l-.489-.234L64 13.5 13.362 37.766l-.49.234A9 9 0 0 0 8 46v28a9 9 0 0 0 9 9h94a9 9 0 0 0 9-9Z" fill="url(#d)"/><path opacity=".8" d="M8 74V46a8.998 8.998 0 0 1 4.873-8l.489-.234L64 13.5l50.638 24.266.489.234A8.998 8.998 0 0 1 120 46v28a9 9 0 0 1-9 9H17a9 9 0 0 1-9-9Z" fill="url(#e)"/><path opacity=".8" d="M120 74V46a8.998 8.998 0 0 0-4.873-8l-.489-.234L64 13.5 13.362 37.766l-.49.234A9 9 0 0 0 8 46v28a9 9 0 0 0 9 9h94a9 9 0 0 0 9-9Z" fill="url(#f)"/><path d="M64 66c14.912 0 27-5.747 27-15.19v-9.442H37V50.4C37 59.016 49.088 66 64 66Z" fill="#2F1E75"/><path d="M91 42.395c0 8.502-12.088 15.394-27 15.394s-27-6.892-27-15.394C37 33.892 49.088 27 64 27s27 6.892 27 15.395Z" fill="#331B5E"/><path d="M64 62c17.673 0 32-8.4 32-22.2V26H32v13.2C32 51.792 46.327 62 64 62Z" fill="url(#g)"/><path d="M96 26.5C96 38.926 81.673 49 64 49c-17.673 0-32-10.074-32-22.5S46.327 4 64 4c17.673 0 32 10.074 32 22.5Z" fill="#8269E8"/><path fill-rule="evenodd" clip-rule="evenodd" d="M84.327 39.138C89.378 35.586 92 31.058 92 26.5s-2.622-9.086-7.673-12.638C79.287 10.32 72.113 8 64 8c-8.113 0-15.287 2.319-20.327 5.862C38.622 17.414 36 21.942 36 26.5s2.622 9.086 7.673 12.638C48.713 42.682 55.887 45 64 45c8.113 0 15.287-2.319 20.327-5.862ZM64 49c17.673 0 32-10.074 32-22.5S81.673 4 64 4C46.327 4 32 14.074 32 26.5S46.327 49 64 49Z" fill="url(#h)"/><defs><linearGradient id="a" x1="8" y1="116" x2="120" y2="116" gradientUnits="userSpaceOnUse"><stop stop-color="#fff" stop-opacity=".2"/><stop offset=".5" stop-color="#fff" stop-opacity=".5"/><stop offset="1" stop-color="#fff" stop-opacity=".2"/></linearGradient><linearGradient id="b" x1="16" y1="108" x2="112" y2="108" gradientUnits="userSpaceOnUse"><stop stop-color="#180746"/><stop offset=".042" stop-color="#5538CA"/><stop offset=".173" stop-color="#180746"/><stop offset=".819" stop-color="#180746"/><stop offset=".953" stop-color="#5538CA"/><stop offset="1" stop-color="#180746"/></linearGradient><linearGradient id="c" x1="16" y1="97" x2="112" y2="97" gradientUnits="userSpaceOnUse"><stop stop-color="#604CB2"/><stop offset=".329" stop-color="#3C187C"/><stop offset=".756" stop-color="#604CB2"/><stop offset="1" stop-color="#3C187C"/></linearGradient><linearGradient id="d" x1="-.5" y1="72.5" x2="14" y2="94.5" gradientUnits="userSpaceOnUse"><stop stop-color="#fff" stop-opacity=".1"/><stop offset=".5" stop-color="#fff" stop-opacity=".71"/><stop offset="1" stop-color="#fff" stop-opacity=".1"/></linearGradient><linearGradient id="e" x1="128.5" y1="72.5" x2="114" y2="94.5" gradientUnits="userSpaceOnUse"><stop stop-color="#fff" stop-opacity=".1"/><stop offset=".5" stop-color="#fff" stop-opacity=".71"/><stop offset="1" stop-color="#fff" stop-opacity=".1"/></linearGradient><linearGradient id="f" x1="39.5" y1="64.742" x2="39.5" y2="87.712" gradientUnits="userSpaceOnUse"><stop stop-color="#fff" stop-opacity=".1"/><stop offset="1" stop-color="#fff" stop-opacity=".71"/></linearGradient><linearGradient id="g" x1="32" y1="62" x2="96" y2="62" gradientUnits="userSpaceOnUse"><stop stop-color="#240D82"/><stop offset=".25" stop-color="#5536D2"/><stop offset=".75" stop-color="#5536D2"/><stop offset="1" stop-color="#240D82"/></linearGradient><radialGradient id="h" cx="0" cy="0" r="1" gradientUnits="userSpaceOnUse" gradientTransform="matrix(-16.00003 -24.50004 26.84105 -17.52885 80 51.5)"><stop stop-color="#A89AD1"/><stop offset="1" stop-color="#A89AD1" stop-opacity="0"/></radialGradient></defs></svg>
